<?xml version="1.0" encoding="UTF-8"?>
<svg version="1.1" xmlns="http://www.w3.org/2000/svg" width="643" height="605">
<path d="M0 0 C212.19 0 424.38 0 643 0 C643 199.65 643 399.3 643 605 C430.81 605 218.62 605 0 605 C0 405.35 0 205.7 0 0 Z " fill="#FEFDFE" transform="translate(0,0)"/>
<path d="M0 0 C-0.14243037 16.83336328 -0.2884404 33.6666941 -0.4375 50.5 C-0.44852123 51.74486427 -0.45954247 52.98972855 -0.47089767 54.27231598 C-0.84903927 96.85063674 -1.35472468 139.42498775 -2 182 C-1.40857649 181.99907821 -0.81715298 181.99815641 -0.20780754 181.99720669 C19.2364553 181.96743618 38.68071838 181.94848048 58.125 181.9375 C58.87185672 181.9370657 59.61871345 181.93663139 60.38820219 181.93618393 C103.69916058 181.91168389 147.00358723 182.03136193 190.3125 182.5 C191.97127041 182.51793673 191.97127041 182.51793673 193.66355133 182.53623581 C206.77584779 182.67905717 219.88799189 182.83280968 233 183 C232.97265274 181.94771713 232.94530548 180.89543427 232.91712952 179.81126404 C232.253121 153.76247713 231.87453871 127.71606759 231.68359375 101.66015625 C231.6786135 100.98448821 231.67363326 100.30882017 231.66850209 99.61267734 C231.584154 88.09599812 231.5118985 76.5792495 231.4375 65.0625 C231.293125 43.591875 231.14875 22.12125 231 0 C292.71 0 354.42 0 418 0 C418 68.03947826 418 68.03947826 417.84557307 92.62135327 C417.82175077 96.48066975 417.80005799 100.3399985 417.7780304 104.19932556 C417.73499072 111.6872155 417.69017818 119.17509368 417.64467461 126.662969 C417.59064137 135.56741205 417.53856634 144.47186632 417.48650425 153.37632107 C417.39255858 169.43391332 417.29699203 185.49149549 417.20043945 201.54907227 C417.10912637 216.7355891 417.01887691 231.92211169 416.92993164 247.10864258 C416.91899039 248.97632778 416.90804908 250.84401298 416.89710772 252.71169817 C416.88899213 254.0970475 416.88899213 254.0970475 416.88071259 255.51038369 C416.87260241 256.89474708 416.87260241 256.89474708 416.86432838 258.30707741 C416.85622561 259.69023216 416.85622561 259.69023216 416.84795914 261.10132942 C416.33973652 347.82301489 415.78911312 434.54433431 415 547 C406.41811788 547.12577195 397.83622436 547.25072739 389.25431692 547.37475773 C385.26543743 547.43243033 381.27656175 547.49034094 377.28769493 547.54888439 C347.46281524 547.98629348 317.63811004 548.2894563 287.81097412 548.53222656 C281.45730312 548.58441018 275.10365286 548.63901942 268.75 548.69335938 C256.50001778 548.79780297 244.25001586 548.89957945 232 549 C232 488.66574586 232.58102223 428.33279937 233 368 C114.86 368 -3.28 368 -125 368 C-124.34 403.31 -123.68 438.62 -123 475 C-123 479.62 -123 484.24 -123 489 C-121.78957031 488.8453125 -120.57914062 488.690625 -119.33203125 488.53125 C-113.13031165 487.8425742 -106.92101337 487.6873176 -100.6875 487.5 C-92.95989488 487.26543526 -85.28832624 486.89699722 -77.5871582 486.20947266 C-73.78496682 485.90162325 -70.01804645 485.92081518 -66.20800781 485.97094727 C-65.47936523 485.98053467 -64.75072266 485.99012207 -64 486 C-64.01160156 485.32042236 -64.02320313 484.64084473 -64.03515625 483.94067383 C-64.13482654 472.83722574 -63.54496804 461.77430794 -63 450.6875 C-62.9033628 448.67514378 -62.80700647 446.66277405 -62.7109375 444.65039062 C-62.47719432 439.7667654 -62.23965741 434.88333841 -62 430 C-57.81328631 429.67642341 -53.62552303 429.36862299 -49.4375 429.0625 C-48.31408203 428.97548828 -47.19066406 428.88847656 -46.03320312 428.79882812 C-31.35040856 427.74166692 -16.75360594 427.47592277 -2 427 C-2 467.59 -2 508.18 -2 550 C-130.5199779 548.98803167 -130.5199779 548.98803167 -184 548 C-185.12019648 501.42642304 -185.49752204 454.84224877 -185.96279085 408.25865829 C-186.07453928 397.08001577 -186.18910354 385.90140256 -186.30383885 374.72279036 C-186.53889832 351.81522365 -186.77062665 328.9076243 -187 306 C-147.54729711 305.73934776 -108.09456155 305.48424392 -68.64178088 305.23563546 C-63.88065317 305.20562929 -59.11952572 305.1755815 -54.35839844 305.14550781 C-52.9378509 305.13653597 -52.9378509 305.13653597 -51.48860544 305.12738287 C-38.38881159 305.04456247 -25.28903377 304.9595439 -12.18926656 304.87261605 C10.53003725 304.72185714 33.24936697 304.57584222 55.96875 304.4375 C57.31705658 304.42927515 57.31705658 304.42927515 58.69260168 304.42088413 C137.46193155 303.94141249 216.22948467 303.88335996 295 304 C295.00516424 312.71436933 295.00900229 321.42873809 295.01133391 330.14310864 C295.01245532 334.19347107 295.01396476 338.24383242 295.01650238 342.29419422 C295.03467944 372.12988589 294.83854309 401.95985312 294.53643799 431.79412842 C294.46231566 439.20549219 294.39350195 446.61690735 294.32368469 454.02831268 C294.21961251 465.01891685 294.10926173 476.00944076 294 487 C314.46 487 334.92 487 356 487 C355.91697632 478.02449951 355.91697632 478.02449951 355.83227539 468.86767578 C353.44393088 210.37656132 353.44393088 210.37656132 353 62 C334.52 62 316.04 62 297 62 C296.93941406 69.033125 296.87882812 76.06625 296.81640625 83.3125 C296.7327999 92.87500924 296.64799166 102.43750744 296.5625 112 C296.55147877 113.23298702 296.54045753 114.46597404 296.52910233 115.73632431 C296.23597086 148.42942119 295.91041807 181.12146466 295.4375 213.8125 C295.4263982 214.58015686 295.4152964 215.34781372 295.40385818 216.13873291 C295.27396016 225.09256099 295.13983826 234.04632116 295 243 C225.13929021 243.75085517 155.27794676 244.18289423 85.41421509 244.52910233 C79.83157159 244.55677134 74.24892992 244.58479377 68.66628867 244.61291289 C56.81459989 244.67257107 44.96290457 244.73069193 33.11120033 244.78719711 C29.13220338 244.80617086 25.15320862 244.82552599 21.17421532 244.84524918 C-5.88403813 244.97876448 -32.94142533 245.02426544 -60 245 C-60.46540074 231.208561 -60.92499462 217.41695107 -61.375 203.625 C-61.40891972 202.58558006 -61.44283943 201.54616013 -61.47778702 200.47524261 C-62.56639306 167.02880353 -63.47042083 133.58145116 -64.1875 100.125 C-64.20884758 99.12926216 -64.23019516 98.13352432 -64.25218964 97.10761261 C-64.50950164 85.07190387 -64.75903631 73.0360471 -65 61 C-66.25433838 61.06058594 -67.50867676 61.12117188 -68.80102539 61.18359375 C-73.5254675 61.41083013 -78.25012395 61.63332023 -82.97485352 61.85449219 C-85.00648894 61.95023463 -87.03806688 62.04720613 -89.06958008 62.14550781 C-100.72247877 62.70847753 -112.3318813 63.16575013 -124 63 C-123.98747192 64.13415344 -123.97494385 65.26830688 -123.96203613 66.43682861 C-123.80141579 81.04115105 -123.64817917 95.64554613 -123.5 110.25 C-123.48812275 111.4201767 -123.4762455 112.59035339 -123.46400833 113.79598999 C-123.13548275 146.36436057 -122.90323369 178.92986766 -122.9375 211.5 C-122.93835602 212.31976822 -122.93921204 213.13953644 -122.94009399 213.98414612 C-122.95098755 223.65612407 -122.9702192 233.32806079 -123 243 C-144.34099007 243.6848935 -165.64581173 244.16951908 -187 244 C-186.69493906 213.57825579 -186.3845712 183.15656797 -186.06964111 152.73492432 C-186.02434706 148.35825774 -185.97921701 143.98158954 -185.93426514 139.60491943 C-185.82164315 128.64402056 -185.70763851 117.68313887 -185.58987904 106.72229385 C-185.54084697 102.15734066 -185.49238828 97.59238395 -185.4458313 93.02740479 C-185.13204441 62.34842817 -184.58855226 31.67484729 -184 1 C-166.21088298 0.86772702 -148.42175354 0.73728167 -130.63260841 0.60884857 C-122.36753345 0.54913696 -114.1024632 0.4888813 -105.83740234 0.42724609 C-34.72121423 -0.10252599 -34.72121423 -0.10252599 0 0 Z " fill="#7F02F4" transform="translate(205,29)"/>
<path d="M0 0 C72.6 0 145.2 0 220 0 C220 0.33 220 0.66 220 1 C205.83009794 1.74043935 191.69849978 2.15941511 177.51025391 2.20532227 C175.575997 2.21493954 173.64174203 2.2249516 171.70748901 2.23532104 C166.53541563 2.26196035 161.36333349 2.28318715 156.19123125 2.30332303 C150.7567343 2.32544062 145.322263 2.35270116 139.88778687 2.37937927 C129.63206954 2.42896252 119.37633773 2.47402637 109.12059247 2.51740164 C97.42984032 2.56707097 85.73911394 2.62187734 74.04838681 2.67708123 C50.03228199 2.79037251 26.01615238 2.89732314 2 3 C2.14251694 4.20142136 2.28503387 5.40284271 2.43186951 6.64067078 C4.23074824 23.09371863 4.24940898 39.48768593 4.16985631 56.01207185 C4.15334578 59.96088953 4.14948596 63.90972028 4.14439392 67.85856628 C4.13311955 75.30928845 4.11246379 82.75994808 4.08749622 90.21063584 C4.0427967 103.57613296 4.00987894 116.94165297 3.98725218 130.30720538 C3.97889968 134.98461917 3.96493602 139.66197146 3.94627964 144.33935511 C3.93558503 147.24712473 3.92903567 150.15489386 3.92347908 153.06267738 C3.91839681 155.03718879 3.90819286 157.01168496 3.89779663 158.98617554 C3.89047235 164.74746164 4.03248374 170.35423484 4.77261829 176.06885624 C5.11225036 178.9533378 5.11948445 181.8110724 5.11352539 184.71313477 C5.11344986 185.95374161 5.11337433 187.19434845 5.11329651 188.47254944 C5.10813522 189.78227219 5.10297394 191.09199493 5.09765625 192.44140625 C5.09578728 193.8185979 5.09436564 195.19579023 5.09336853 196.57298279 C5.08958103 200.16828298 5.07978368 203.76354169 5.06866455 207.35882568 C5.05836869 211.03934163 5.05385353 214.71986438 5.04882812 218.40039062 C5.03815739 225.60027917 5.02112718 232.80013373 5 240 C6.38276123 239.99666908 6.38276123 239.99666908 7.79345703 239.99327087 C16.50292125 239.97319078 25.21237764 239.95798658 33.92185974 239.94818783 C38.3989257 239.94298077 42.87597244 239.93592285 47.35302734 239.92456055 C51.67779732 239.91365406 56.00254887 239.90770677 60.32733154 239.90512276 C61.97304575 239.90328246 63.61875901 239.89968891 65.26446533 239.89426994 C67.57867573 239.88695636 69.89281106 239.88601338 72.20703125 239.88647461 C74.17893433 239.88314369 74.17893433 239.88314369 76.19067383 239.87974548 C79.48465563 239.98373138 82.6440436 240.3305646 85.90551758 240.77373409 C89.77564767 241.19182235 93.64861748 241.12995007 97.53710938 241.11352539 C98.46981911 241.11364593 99.40252884 241.11376646 100.3635025 241.11389065 C103.35694333 241.11314938 106.35032044 241.10555725 109.34375 241.09765625 C111.20214813 241.09618439 113.06054668 241.09516518 114.91894531 241.09460449 C121.77930323 241.08937987 128.63965225 241.0754186 135.5 241.0625 C158.5175 241.0315625 158.5175 241.0315625 182 241 C182 202.72 182 164.44 182 125 C178.25308553 125.78306954 178.25308553 125.78306954 176 127 C176 126.34 176 125.68 176 125 C171.46102295 124.97534608 166.92208457 124.95716211 162.38305664 124.94506836 C160.83780234 124.9400286 159.29255284 124.9331968 157.74731445 124.92456055 C155.53074971 124.91247924 153.31424782 124.90676827 151.09765625 124.90234375 C150.4028566 124.89718246 149.70805695 124.89202118 148.99220276 124.88670349 C147.3277067 124.88650723 145.66334501 124.93810871 144 125 C143.67 125.33 143.34 125.66 143 126 C140.47403741 126.23653523 137.96892793 126.42173692 135.4375 126.5625 C134.72658203 126.60568359 134.01566406 126.64886719 133.28320312 126.69335938 C131.52238088 126.79971777 129.7612168 126.90038846 128 127 C127.96241577 128.0372522 127.96241577 128.0372522 127.92407227 129.09545898 C127.80847839 132.20967866 127.68558758 135.32356789 127.5625 138.4375 C127.52318359 139.52611328 127.48386719 140.61472656 127.44335938 141.73632812 C127.40146484 142.77080078 127.35957031 143.80527344 127.31640625 144.87109375 C127.27974854 145.82943115 127.24309082 146.78776855 127.20532227 147.77514648 C127 150 127 150 126 151 C125.98581858 153.10055196 126.03630575 155.20159225 126.11328125 157.30078125 C126.14357422 158.58791016 126.17386719 159.87503906 126.20507812 161.20117188 C126.25439922 163.25621738 126.31236082 165.30915039 126.39770508 167.36303711 C126.47662853 169.34136911 126.51421409 171.3212133 126.55078125 173.30078125 C126.58856689 174.48841064 126.62635254 175.67604004 126.6652832 176.8996582 C126 180 126 180 122.96557617 182.41870117 C121.98693604 182.94052979 121.0082959 183.4623584 120 184 C119.67 183.34 119.34 182.68 119 182 C116.56212615 182.1409349 114.12482147 182.28754542 111.6875 182.4375 C110.99720703 182.47681641 110.30691406 182.51613281 109.59570312 182.55664062 C106.52838465 182.74927415 103.93031848 183.02322717 101 184 C99.65870364 184.14564625 98.31221775 184.24660605 96.96484375 184.31640625 C96.16336914 184.35838135 95.36189453 184.40035645 94.53613281 184.44360352 C93.67858398 184.48283936 92.82103516 184.5220752 91.9375 184.5625 C91.05803711 184.6049585 90.17857422 184.64741699 89.27246094 184.69116211 C80.51313005 185.08055276 71.76576529 185.09528006 63 185 C62.66666667 183.33333333 62.33333333 181.66666667 62 180 C61.82587869 179.21943898 61.65175737 178.43887796 61.47235966 177.63466358 C61.00624287 175.03482064 60.87686224 172.67105017 60.87974548 170.03288269 C60.87837082 169.05838165 60.87699615 168.08388062 60.87557983 167.07984924 C60.88097275 165.49381142 60.88097275 165.49381142 60.88647461 163.87573242 C60.88632858 162.75334167 60.88618256 161.63095093 60.8860321 160.47454834 C60.88672824 156.76816875 60.89450672 153.06183955 60.90234375 149.35546875 C60.90420899 146.78428678 60.90563239 144.21310445 60.90663147 141.641922 C60.91005827 135.56824059 60.91793817 129.49457995 60.92798096 123.42090636 C60.93916854 116.50435862 60.94465921 109.58781001 60.94967639 102.67125547 C60.9601215 88.44749396 60.97770445 74.22374762 61 60 C91.95832816 59.9687968 122.91665824 59.94882904 153.875 59.9375 C155.02756774 59.9370657 156.18013549 59.93663139 157.36762953 59.93618393 C223.51764256 59.91193547 289.66407854 60.0242248 355.8125 60.5 C356.64548457 60.50597372 357.47846914 60.51194743 358.33669567 60.51810217 C378.89123767 60.66575548 399.44567311 60.82482184 420 61 C420 61.33 420 61.66 420 62 C301.86 62 183.72 62 62 62 C62.66 97.31 63.32 132.62 64 169 C64 173.62 64 178.24 64 183 C65.81564453 182.76796875 65.81564453 182.76796875 67.66796875 182.53125 C73.86968835 181.8425742 80.07898663 181.6873176 86.3125 181.5 C94.04010512 181.26543526 101.71167376 180.89699722 109.4128418 180.20947266 C113.21503318 179.90162325 116.98195355 179.92081518 120.79199219 179.97094727 C121.52063477 179.98053467 122.24927734 179.99012207 123 180 C122.98839844 179.32042236 122.97679687 178.64084473 122.96484375 177.94067383 C122.86517346 166.83722574 123.45503196 155.77430794 124 144.6875 C124.0966372 142.67514378 124.19299353 140.66277405 124.2890625 138.65039062 C124.52280568 133.7667654 124.76034259 128.88333841 125 124 C129.18671369 123.67642341 133.37447697 123.36862299 137.5625 123.0625 C138.68591797 122.97548828 139.80933594 122.88847656 140.96679688 122.79882812 C155.64959144 121.74166692 170.24639406 121.47592277 185 121 C185 161.59 185 202.18 185 244 C56.4800221 242.98803167 56.4800221 242.98803167 3 242 C2.21627825 209.41578273 1.80570689 176.82961431 1.46484375 144.23828125 C1.45490175 143.28964258 1.44495974 142.34100391 1.43471646 141.36361861 C1.26374876 125.01329791 1.10141268 108.66289352 0.9375 92.3125 C0.628125 61.849375 0.31875 31.38625 0 0 Z " fill="#5012C7" transform="translate(18,335)"/>
<path d="M0 0 C0.99 0 1.98 0 3 0 C3 0.66 3 1.32 3 2 C3.66 2 4.32 2 5 2 C6.99682295 6.17182107 7.26573453 9.60317007 7.30297852 14.20532227 C7.31141785 14.91163788 7.31985718 15.61795349 7.32855225 16.34567261 C7.35424212 18.66925771 7.36645006 20.99271592 7.37890625 23.31640625 C7.39509012 24.9363657 7.41227105 26.55631547 7.43040466 28.17625427 C7.47602206 32.43418904 7.51086174 36.69213694 7.54260254 40.95019531 C7.59453916 47.76886877 7.65971641 54.58739947 7.73081779 61.40589714 C7.75361123 63.78560501 7.76990695 66.16529488 7.78553772 68.5450592 C7.79894725 70.00473223 7.8125623 71.46440339 7.82641602 72.92407227 C7.83592789 74.19694595 7.84543976 75.46981964 7.85523987 76.78126526 C7.97519872 79.44854461 8.35694701 81.45242667 9 84 C9.11055105 86.27561678 9.16616578 88.55409388 9.18945312 90.83227539 C9.20189308 91.85004814 9.20189308 91.85004814 9.21458435 92.88838196 C9.23194 94.35721104 9.24711893 95.82606711 9.26036072 97.29493904 C9.2814445 99.61909709 9.30846113 101.94311941 9.33703613 104.26719666 C9.40675698 110.03733536 9.46627467 115.80757119 9.52606201 121.57781982 C9.57700553 126.45806625 9.6318285 131.33823876 9.69187927 136.21838188 C9.71844586 138.50893327 9.73926232 140.79949167 9.7598877 143.09010315 C9.77649033 144.4924452 9.79336214 145.8947841 9.81054688 147.29711914 C9.82307495 148.52193497 9.83560303 149.74675079 9.84851074 151.00868225 C9.8687987 154.05279672 9.8687987 154.05279672 11 157 C11.3075172 160.35279172 11.5089708 163.70619297 11.71875 167.06640625 C11.81590661 169.93165746 11.81590661 169.93165746 13 172 C12.67 172.66 12.34 173.32 12 174 C11.77141886 176.0374763 11.58975722 178.08040303 11.4375 180.125 C11.35371094 181.22070312 11.26992187 182.31640625 11.18359375 183.4453125 C11.12300781 184.28835938 11.06242188 185.13140625 11 186 C12.093125 185.814375 13.18625 185.62875 14.3125 185.4375 C18 185 18 185 21 186 C23.74418105 185.90945255 26.46044413 185.75798069 29.19818115 185.56959534 C42.97198075 184.76234018 56.75268419 184.86464705 70.54415512 184.88393438 C74.48112727 184.88831121 78.41809812 184.8867874 82.35507202 184.8860321 C89.15261483 184.88551139 95.95014793 184.8886105 102.74768829 184.89426994 C112.57541581 184.90244685 122.40313871 184.90500646 132.23086926 184.90625793 C148.18125924 184.9084388 164.13164407 184.91507253 180.08203125 184.92456055 C195.56315078 184.93375976 211.04426891 184.94082828 226.52539062 184.94506836 C227.48194873 184.94533108 228.43850684 184.94559381 229.42405155 184.94586449 C234.2235098 184.94716966 239.02296806 184.94843334 243.82242632 184.94967639 C283.54828782 184.9600189 323.27414357 184.97761074 363 185 C362.99723462 183.69271171 362.99723462 183.69271171 362.99441338 182.35901356 C362.95025958 161.16045785 362.91715571 139.96191006 362.89637566 118.76331806 C362.88605968 108.51187299 362.87199319 98.26045859 362.84912109 88.0090332 C362.82919708 79.07470355 362.8162859 70.14039611 362.81182301 61.20604485 C362.80921396 56.47465432 362.80307484 51.74332735 362.78853989 47.01195717 C362.77497161 42.55920902 362.77077584 38.10655066 362.77378464 33.6537838 C362.77323414 32.01913337 362.76925219 30.38447997 362.76158905 28.74984741 C362.75163957 26.51816452 362.75403105 24.28682073 362.75949097 22.05513 C362.75672559 20.18158576 362.75672559 20.18158576 362.75390434 18.27019215 C362.99371409 15.08352904 363.62969181 12.8645992 365 10 C364.01 9.67 363.02 9.34 362 9 C361.67 8.01 361.34 7.02 361 6 C361.66 5.67 362.32 5.34 363 5 C363.66 4.01 364.32 3.02 365 2 C367.15647888 1.6526947 367.15647888 1.6526947 369.86108398 1.69116211 C371.3779203 1.70118507 371.3779203 1.70118507 372.92539978 1.71141052 C374.5691433 1.74404747 374.5691433 1.74404747 376.24609375 1.77734375 C377.36814713 1.78633194 378.4902005 1.79532013 379.64625549 1.80458069 C383.24364563 1.83469974 386.84037926 1.88449889 390.4375 1.9375 C394.03100562 1.98524705 397.6243431 2.02859797 401.21803284 2.05970764 C403.45735265 2.07953814 405.69661043 2.10924754 407.93565369 2.14964294 C408.95003006 2.15947708 409.96440643 2.16931122 411.00952148 2.17944336 C411.90283676 2.1929332 412.79615204 2.20642303 413.71653748 2.22032166 C416.2800176 2.15437384 416.2800176 2.15437384 419 0 C419.33 0.99 419.66 1.98 420 3 C420.66 3 421.32 3 422 3 C422 3.66 422 4.32 422 5 C403.52 5 385.04 5 366 5 C365.93941406 12.033125 365.87882812 19.06625 365.81640625 26.3125 C365.7327999 35.87500924 365.64799166 45.43750744 365.5625 55 C365.55147877 56.23298702 365.54045753 57.46597404 365.52910233 58.73632431 C365.23597086 91.42942119 364.91041807 124.12146466 364.4375 156.8125 C364.4263982 157.58015686 364.4152964 158.34781372 364.40385818 159.13873291 C364.27396016 168.09256099 364.13983826 177.04632116 364 186 C294.13929021 186.75085517 224.27794676 187.18289423 154.41421509 187.52910233 C148.83157159 187.55677134 143.24892992 187.58479377 137.66628867 187.61291289 C125.81459989 187.67257107 113.96290457 187.73069193 102.11120033 187.78719711 C98.13220338 187.80617086 94.15320862 187.82552599 90.17421532 187.84524918 C63.11596187 187.97876448 36.05857467 188.02426544 9 188 C8.53459926 174.208561 8.07500538 160.41695107 7.625 146.625 C7.59108028 145.58558006 7.55716057 144.54616013 7.52221298 143.47524261 C6.43360694 110.02880353 5.52957917 76.58145116 4.8125 43.125 C4.79115242 42.12926216 4.76980484 41.13352432 4.74781036 40.10761261 C4.49049836 28.07190387 4.24096369 16.0360471 4 4 C2.74566162 4.06058594 1.49132324 4.12117188 0.19897461 4.18359375 C-4.5254675 4.41083013 -9.25012395 4.63332023 -13.97485352 4.85449219 C-16.00648894 4.95023463 -18.03806688 5.04720613 -20.06958008 5.14550781 C-31.72247877 5.70847753 -43.3318813 6.16575013 -55 6 C-54.98747192 7.13415344 -54.97494385 8.26830688 -54.96203613 9.43682861 C-54.80141579 24.04115105 -54.64817917 38.64554613 -54.5 53.25 C-54.48812275 54.4201767 -54.4762455 55.59035339 -54.46400833 56.79598999 C-54.13548275 89.36436057 -53.90323369 121.92986766 -53.9375 154.5 C-53.93835602 155.31976822 -53.93921204 156.13953644 -53.94009399 156.98414612 C-53.95098755 166.65612407 -53.9702192 176.32806079 -54 186 C-75.34099007 186.6848935 -96.64581173 187.16951908 -118 187 C-117.85643296 172.24997736 -117.71044906 157.49997934 -117.5625 142.75 C-117.55147877 141.65108681 -117.54045753 140.55217361 -117.52910233 139.41996002 C-117.21237686 107.90431455 -116.8617005 76.38939025 -116.4375 44.875 C-116.4263982 44.05009567 -116.4152964 43.22519135 -116.40385818 42.37528992 C-116.27184768 32.5834901 -116.13740771 22.79172564 -116 13 C-113.43133971 15.56866029 -113.76850492 17.24767956 -113.76226807 20.74775696 C-113.77102966 21.55093857 -113.77979126 22.35412018 -113.78881836 23.18164062 C-113.7901326 24.02728073 -113.79144684 24.87292084 -113.7928009 25.7441864 C-113.79930882 28.54832 -113.81974875 31.35218368 -113.83984375 34.15625 C-113.84611126 36.09915878 -113.85135231 38.04207112 -113.85560608 39.98498535 C-113.86893109 45.10693173 -113.89337479 50.22875968 -113.92095947 55.35064697 C-113.96402188 63.54982399 -113.99374939 71.74903325 -114.0170002 79.94828796 C-114.0272552 82.81896315 -114.04430318 85.68954289 -114.06199646 88.56018066 C-114.06882239 90.31290602 -114.07543117 92.06563225 -114.08178711 93.81835938 C-114.09189316 95.02313179 -114.09189316 95.02313179 -114.10220337 96.25224304 C-114.20328728 100.25583056 -114.20328728 100.25583056 -113 104 C-113.495 104.99 -113.495 104.99 -114 106 C-114.08464879 107.44596966 -114.10721346 108.89582455 -114.09765625 110.34423828 C-114.09435303 111.24763947 -114.0910498 112.15104065 -114.08764648 113.08181763 C-114.07934814 114.06802094 -114.0710498 115.05422424 -114.0625 116.0703125 C-114.05871338 117.09816864 -114.05492676 118.12602478 -114.05102539 119.18502808 C-114.03478906 123.57815586 -114.0073048 127.97119007 -113.97949219 132.36425781 C-113.91023659 144.33089634 -113.9428664 156.28178927 -114.375 168.2421875 C-114.40585693 169.23646759 -114.43671387 170.23074768 -114.46850586 171.25515747 C-114.67387882 176.18448204 -115.09138513 180.37684599 -117 185 C-114.525 184.01 -114.525 184.01 -112 183 C-112 183.66 -112 184.32 -112 185 C-93.19 185 -74.38 185 -55 185 C-55.5297995 174.43857163 -55.5297995 174.43857163 -57 164 C-57.09368976 161.80837667 -57.13480032 159.61424151 -57.14044189 157.42062378 C-57.14341302 156.77326708 -57.14638414 156.12591038 -57.1494453 155.45893681 C-57.15809091 153.29796936 -57.15963697 151.13705757 -57.16113281 148.97607422 C-57.16576365 147.42357262 -57.17078867 145.87107215 -57.17617798 144.318573 C-57.18927207 140.10805855 -57.19574024 135.89756002 -57.20018864 131.68702841 C-57.20312215 129.05724086 -57.20722733 126.42745764 -57.21169281 123.79767227 C-57.22535534 115.57133183 -57.23502999 107.34500132 -57.2388947 99.11865032 C-57.24338272 89.61802279 -57.2609702 80.11753861 -57.2898953 70.61695468 C-57.31147931 63.27334035 -57.3215971 55.92976646 -57.32293582 48.58612072 C-57.32398554 44.19913093 -57.32992947 39.81227612 -57.34775543 35.42531967 C-57.36418111 31.30323574 -57.36641864 27.18138912 -57.35761642 23.05928421 C-57.35684328 21.54472978 -57.36122514 20.03016286 -57.37107468 18.51564026 C-57.38371161 16.45194374 -57.37796378 14.38909851 -57.36749268 12.32540894 C-57.36895924 11.16952208 -57.3704258 10.01363522 -57.3719368 8.82272148 C-57 6 -57 6 -55.60923386 4.13168526 C-53.47037532 2.62754423 -52.01164511 2.5716888 -49.40625 2.48828125 C-48.47063232 2.4526709 -47.53501465 2.41706055 -46.57104492 2.38037109 C-45.5576001 2.35797363 -44.54415527 2.33557617 -43.5 2.3125 C-42.45368408 2.27979004 -41.40736816 2.24708008 -40.3293457 2.21337891 C-31.95074993 1.9797646 -23.56905483 1.90382007 -15.1875 1.875 C-14.01960938 1.87024658 -12.85171875 1.86549316 -11.6484375 1.8605957 C-10.56175781 1.862771 -9.47507812 1.86494629 -8.35546875 1.8671875 C-7.39278076 1.86831543 -6.43009277 1.86944336 -5.43823242 1.87060547 C-3 2 -3 2 0 3 C0 2.01 0 1.02 0 0 Z " fill="#5514D2" transform="translate(136,86)"/>
<path d="M0 0 C61.71 0 123.42 0 187 0 C187 68.03947826 187 68.03947826 186.84557307 92.62135327 C186.82175077 96.48066975 186.80005799 100.3399985 186.7780304 104.19932556 C186.73499072 111.6872155 186.69017818 119.17509368 186.64467461 126.662969 C186.59064137 135.56741205 186.53856634 144.47186632 186.48650425 153.37632107 C186.39255858 169.43391332 186.29699203 185.49149549 186.20043945 201.54907227 C186.10912637 216.7355891 186.01887691 231.92211169 185.92993164 247.10864258 C185.91899039 248.97632778 185.90804908 250.84401298 185.89710772 252.71169817 C185.88899213 254.0970475 185.88899213 254.0970475 185.88071259 255.51038369 C185.8753058 256.43329262 185.86989901 257.35620154 185.86432838 258.30707741 C185.85892653 259.22918057 185.85352468 260.15128374 185.84795914 261.10132942 C185.33973652 347.82301489 184.78911312 434.54433431 184 547 C175.41811788 547.12577195 166.83622436 547.25072739 158.25431692 547.37475773 C154.26543743 547.43243033 150.27656175 547.49034094 146.28769493 547.54888439 C116.46281524 547.98629348 86.63811004 548.2894563 56.81097412 548.53222656 C50.45730312 548.58441018 44.10365286 548.63901942 37.75 548.69335938 C25.50001807 548.79780296 13.25001739 548.89980667 1 549 C0.97154023 525.72251311 1.02875387 502.44747637 1.20192909 479.17063498 C1.23092437 475.23370268 1.25836969 471.29675951 1.28601074 467.3598175 C1.33809086 459.9732712 1.39147498 452.58673498 1.4453826 445.20020181 C1.50689933 436.76178506 1.5668786 428.32335757 1.62675762 419.88492906 C1.74951567 402.58994062 1.87411058 385.29496593 2 368 C2.33 368 2.66 368 3 368 C3 427.07 3 486.14 3 547 C5.31 546.67 7.62 546.34 10 546 C12.46869721 545.91474715 14.93936248 545.87795161 17.40953064 545.87974548 C18.47818394 545.87846385 18.47818394 545.87846385 19.56842619 545.87715632 C21.93748937 545.8755192 24.30648054 545.88099371 26.67553711 545.88647461 C28.38098143 545.88675689 30.08642587 545.88659795 31.79187012 545.8860321 C36.40908764 545.88574572 41.02627908 545.89161675 45.64349055 545.89860606 C50.47347172 545.90486608 55.30345351 545.90544549 60.13343811 545.90663147 C69.2740719 545.90973698 78.41469371 545.91793985 87.55532223 545.92798096 C97.96399106 545.93916633 108.37266046 545.94465866 118.7813338 545.94967639 C140.18756256 545.96012311 161.59378052 545.97770744 183 546 C182.99484627 545.13048423 182.98969254 544.26096846 182.98438263 543.36510372 C181.89650759 359.46969794 181.89650759 359.46969794 181.87661743 289.5226326 C181.87500895 285.83302795 181.87146553 282.14342963 181.86743164 278.4538269 C181.86163686 272.74448429 181.86129913 267.03516843 181.86568069 261.32582474 C181.86665695 259.30516194 181.86613887 257.28449764 181.86384201 255.26383591 C181.85334089 244.15850671 182.10376358 233.11948368 182.77981567 222.03363037 C183.08843119 216.8333029 183.0805453 211.64475339 183 206.4375 C182.9745939 204.66542424 182.95352579 202.89327916 182.9375 201.12109375 C182.92589844 200.3727124 182.91429687 199.62433105 182.90234375 198.85327148 C183 197 183 197 184 195 C184.09553197 192.48093107 184.13015437 189.98966276 184.12025452 187.47042847 C184.12110894 186.68467756 184.12196337 185.89892666 184.12284368 185.08936512 C184.12449789 182.44220369 184.11897806 179.79510487 184.11352539 177.14794922 C184.11324348 175.25605267 184.11340133 173.36415601 184.1139679 171.47225952 C184.11425572 166.3237723 184.1083614 161.17530821 184.10139394 156.02682638 C184.09515791 150.65095225 184.0945564 145.27507763 184.09336853 139.89920044 C184.09025595 129.71362971 184.08204355 119.52806968 184.07201904 109.34250367 C184.05876972 95.58268747 184.0533574 81.82286837 184.04751682 68.06304741 C184.03810361 46.37535693 184.0181842 24.687689 184 3 C124.27 3 64.54 3 3 3 C3 62.4 3 121.8 3 183 C2.67 183 2.34 183 2 183 C1.29541196 155.88847451 0.88233192 128.77951052 0.68359375 101.66015625 C0.6786135 100.98448821 0.67363326 100.30882017 0.66850209 99.61267734 C0.584154 88.09599812 0.5118985 76.5792495 0.4375 65.0625 C0.293125 43.591875 0.14875 22.12125 0 0 Z " fill="#AC19D3" transform="translate(436,29)"/>
<path d="M0 0 C0.33 0 0.66 0 1 0 C1.02505615 0.57032959 1.0501123 1.14065918 1.07592773 1.72827148 C1.19156549 4.29826157 1.31443624 6.86785527 1.4375 9.4375 C1.47681641 10.33533203 1.51613281 11.23316406 1.55664062 12.15820312 C1.59853516 13.01220703 1.64042969 13.86621094 1.68359375 14.74609375 C1.72025146 15.53685303 1.75690918 16.3276123 1.79467773 17.14233398 C1.80563257 19.01401441 1.80563257 19.01401441 3 20 C3.1007575 21.45047667 3.13213696 22.90583216 3.13587189 24.35979939 C3.14072963 25.30680723 3.14558738 26.25381508 3.15059233 27.22952014 C3.15088831 28.28221676 3.1511843 29.33491337 3.15148926 30.41950989 C3.15783787 32.08264749 3.15783787 32.08264749 3.16431475 33.77938384 C3.17741799 37.52585676 3.1833832 41.27230837 3.18945312 45.01879883 C3.1973895 47.69222758 3.20572541 50.3656522 3.21458435 53.03907776 C3.2329629 58.81163322 3.24779688 64.58418911 3.26036072 70.35676003 C3.27862696 78.7073795 3.30329269 87.05797072 3.32973462 95.40856787 C3.37256582 108.96125292 3.41167 122.51394577 3.44775391 136.06665039 C3.44991671 136.87848287 3.45207951 137.69031534 3.45430785 138.5267488 C3.4696343 144.28866561 3.48482964 150.05058277 3.5 155.8125 C3.51731942 162.38907903 3.53470578 168.96565788 3.55224609 175.54223633 C3.55440496 176.35217479 3.55656383 177.16211325 3.55878812 177.9965953 C3.59488408 191.49352552 3.63483881 204.99044168 3.67754889 218.48735255 C3.70372218 226.81811185 3.72637714 235.14886684 3.74453247 243.47964754 C3.75719086 249.18767327 3.77331381 254.89568233 3.79218161 260.6036909 C3.80294855 263.89930377 3.81152447 267.19489757 3.81687737 270.49052429 C3.82290328 274.06022651 3.83494164 277.62985887 3.84851074 281.19953918 C3.84880673 282.24554364 3.84910272 283.29154809 3.84940767 284.36924964 C3.85426542 285.32408073 3.85912316 286.27891183 3.86412811 287.26267719 C3.86730207 288.49899292 3.86730207 288.49899292 3.87054014 289.76028472 C3.99815309 291.96804761 4.42755134 293.8708676 5 296 C5.08761198 297.74042447 5.12200414 299.4838741 5.12025452 301.22650146 C5.12231651 302.81240334 5.12231651 302.81240334 5.12442017 304.43034363 C5.12082489 305.58480484 5.11722961 306.73926605 5.11352539 307.92871094 C5.11367142 309.14849136 5.11381744 310.36827179 5.1139679 311.62501526 C5.1133908 314.96560522 5.10837708 318.3061333 5.10139394 321.6467123 C5.09514071 325.13941198 5.09455504 328.63211249 5.09336853 332.12481689 C5.09026103 338.73685272 5.08205545 345.348872 5.07201904 351.96090055 C5.06083988 359.48926374 5.05534291 367.01762772 5.05032361 374.54599714 C5.03987237 390.03067434 5.02228415 405.51533504 5 421 C5.99 420.67 6.98 420.34 8 420 C8.33 420.66 8.66 421.32 9 422 C8.01 422.33 7.02 422.66 6 423 C6 423.99 6 424.98 6 426 C5.01 426.33 4.02 426.66 3 427 C2.34 426.67 1.68 426.34 1 426 C-0.94044277 425.90871707 -2.8840756 425.88247752 -4.82666016 425.88647461 C-6.65833237 425.88658791 -6.65833237 425.88658791 -8.52700806 425.88670349 C-9.86435995 425.89181048 -11.20171143 425.89702648 -12.5390625 425.90234375 C-13.90383859 425.9042086 -15.26861534 425.90563219 -16.63339233 425.90663147 C-20.22715093 425.91045137 -23.82086917 425.92027717 -27.41461182 425.93133545 C-31.08108982 425.94156089 -34.74757435 425.94613152 -38.4140625 425.95117188 C-45.60939341 425.9618999 -52.80469105 425.97897001 -60 426 C-61.90244761 421.97890807 -62.23937746 418.80567567 -62.20927429 414.37593079 C-62.20760516 413.72378497 -62.20593602 413.07163915 -62.2042163 412.39973134 C-62.19616454 410.2224564 -62.17363933 408.04557796 -62.15112305 405.8684082 C-62.14233057 404.30443777 -62.13441821 402.74046219 -62.12731934 401.17648315 C-62.10544113 396.93494538 -62.07088706 392.69359627 -62.03379035 388.45216775 C-61.99685737 384.01553385 -61.97066148 379.57883562 -61.94306946 375.14213562 C-61.89515102 367.69487404 -61.83938815 360.24770389 -61.77856445 352.80053711 C-61.70823817 344.18282632 -61.64845155 335.5650941 -61.59470528 326.94726497 C-61.53742922 317.7789562 -61.47263701 308.61071193 -61.40554833 299.44247031 C-61.38668881 296.79658128 -61.36922399 294.15068604 -61.3520565 291.50478554 C-61.32474167 287.35400371 -61.29239503 283.20329066 -61.25609589 279.05257797 C-61.2435145 277.52633522 -61.23261839 276.00007755 -61.22349739 274.4738102 C-61.2107908 272.39684443 -61.19204293 270.32002098 -61.17167664 268.24311829 C-61.15810135 266.49684379 -61.15810135 266.49684379 -61.14425182 264.71529102 C-61 262 -61 262 -60 260 C-60 254.72 -60 249.44 -60 244 C-213.45 243.505 -213.45 243.505 -370 243 C-370 242.67 -370 242.34 -370 242 C-346.50007002 241.82306053 -323.00006794 241.65750136 -299.5 241.5 C-298.17137184 241.49107719 -298.17137184 241.49107719 -296.81590271 241.48197412 C-239.21025441 241.09584649 -181.60693656 240.90752612 -124 240.9375 C-123.1598724 240.93792423 -122.3197448 240.93834846 -121.45415878 240.93878555 C-100.30276037 240.94965158 -79.15137942 240.96933827 -58 241 C-57.9373741 283.60125257 -58.03219411 326.19455399 -58.46356201 368.79412842 C-58.53768434 376.20549219 -58.60649805 383.61690735 -58.67631531 391.02831268 C-58.78038749 402.01891685 -58.89073827 413.00944076 -59 424 C-38.54 424 -18.08 424 3 424 C2.91697632 415.02449951 2.91697632 415.02449951 2.83227539 405.86767578 C0.44564976 147.56294573 0.44564976 147.56294573 0 0 Z " fill="#9426D7" transform="translate(558,92)"/>
<path d="M0 0 C-0.14243037 16.83336328 -0.2884404 33.6666941 -0.4375 50.5 C-0.44852123 51.74486427 -0.45954247 52.98972855 -0.47089767 54.27231598 C-0.84903927 96.85063674 -1.35472468 139.42498775 -2 182 C-1.40857649 181.99907821 -0.81715298 181.99815641 -0.20780754 181.99720669 C19.2364553 181.96743618 38.68071838 181.94848048 58.125 181.9375 C58.87185672 181.9370657 59.61871345 181.93663139 60.38820219 181.93618393 C103.69916058 181.91168389 147.00358723 182.03136193 190.3125 182.5 C191.97127041 182.51793673 191.97127041 182.51793673 193.66355133 182.53623581 C206.77584779 182.67905717 219.88799189 182.83280968 233 183 C233 183.33 233 183.66 233 184 C157.1 184 81.2 184 3 184 C2.67 184.99 2.34 185.98 2 187 C0.35 186.34 -1.3 185.68 -3 185 C-3.33 185.66 -3.66 186.32 -4 187 C-5.05348439 182.74291797 -5.09510208 178.65781018 -5.00585938 174.30395508 C-4.98903862 173.166511 -4.98903862 173.166511 -4.97187805 172.00608826 C-4.9469479 170.36642046 -4.91955784 168.7267886 -4.88996887 167.08719826 C-4.84329983 164.49452221 -4.80329204 161.90181839 -4.76501465 159.30900574 C-4.68263471 153.81006824 -4.59184002 148.31128651 -4.5 142.8125 C-4.39362528 136.43015559 -4.29067254 130.04779162 -4.19624329 123.66525841 C-4.15663619 121.10697585 -4.11083949 118.54885097 -4.06481934 115.99067688 C-4.04096049 114.42974291 -4.01738532 112.86880457 -3.99414062 111.30786133 C-3.97962357 110.5935495 -3.96510651 109.87923767 -3.95014954 109.14328003 C-3.8457863 105.44848144 -3.8457863 105.44848144 -5 102 C-4.34 102 -3.68 102 -3 102 C-3.00222061 100.83568451 -3.00444122 99.67136902 -3.00672913 98.47177124 C-3.02700707 87.49539731 -3.0419946 76.51902719 -3.05181217 65.54263878 C-3.05702916 59.89967442 -3.06410535 54.25672519 -3.07543945 48.61376953 C-3.08631036 43.16730221 -3.09228577 37.72084944 -3.09487724 32.2743721 C-3.0967239 30.1971781 -3.10032994 28.11998489 -3.10573006 26.04279709 C-3.11299622 23.1318668 -3.11398858 20.22099651 -3.11352539 17.31005859 C-3.11712067 16.45266083 -3.12071594 15.59526306 -3.12442017 14.71188354 C-3.1230455 13.91270508 -3.12167084 13.11352661 -3.12025452 12.29013062 C-3.12163721 11.25864427 -3.12163721 11.25864427 -3.12304783 10.20631981 C-2.9693076 7.44966732 -2.45389512 4.72337075 -2 2 C-61.07 2 -120.14 2 -181 2 C-181.33 23.45 -181.66 44.9 -182 67 C-182.99 67.495 -182.99 67.495 -184 68 C-184 45.89 -184 23.78 -184 1 C-150.08275765 0.74922556 -150.08275765 0.74922556 -135.57421875 0.64453125 C-125.66193989 0.57298965 -115.7496638 0.501165 -105.83740234 0.42724609 C-34.72121423 -0.10252599 -34.72121423 -0.10252599 0 0 Z " fill="#6D26CF" transform="translate(205,29)"/>
<path d="M0 0 C72.6 0 145.2 0 220 0 C220 0.33 220 0.66 220 1 C205.83009794 1.74043935 191.69849978 2.15941511 177.51025391 2.20532227 C175.575997 2.21493954 173.64174203 2.2249516 171.70748901 2.23532104 C166.53541563 2.26196035 161.36333349 2.28318715 156.19123125 2.30332303 C150.7567343 2.32544062 145.322263 2.35270116 139.88778687 2.37937927 C129.63206954 2.42896252 119.37633773 2.47402637 109.12059247 2.51740164 C97.42984032 2.56707097 85.73911394 2.62187734 74.04838681 2.67708123 C50.03228199 2.79037251 26.01615238 2.89732314 2 3 C2.14251694 4.20142136 2.28503387 5.40284271 2.43186951 6.64067078 C4.23074824 23.09371863 4.24940898 39.48768593 4.16985631 56.01207185 C4.15334578 59.96088953 4.14948596 63.90972028 4.14439392 67.85856628 C4.13311955 75.30928845 4.11246379 82.75994808 4.08749622 90.21063584 C4.0427967 103.57613296 4.00987894 116.94165297 3.98725218 130.30720538 C3.97889968 134.98461917 3.96493602 139.66197146 3.94627964 144.33935511 C3.93558503 147.24712473 3.92903567 150.15489386 3.92347908 153.06267738 C3.91839681 155.03718879 3.90819286 157.01168496 3.89779663 158.98617554 C3.89047235 164.74746164 4.03248374 170.35423484 4.77261829 176.06885624 C5.11225036 178.9533378 5.11948445 181.8110724 5.11352539 184.71313477 C5.11344986 185.95374161 5.11337433 187.19434845 5.11329651 188.47254944 C5.10813522 189.78227219 5.10297394 191.09199493 5.09765625 192.44140625 C5.09578728 193.8185979 5.09436564 195.19579023 5.09336853 196.57298279 C5.08958103 200.16828298 5.07978368 203.76354169 5.06866455 207.35882568 C5.05836869 211.03934163 5.05385353 214.71986438 5.04882812 218.40039062 C5.03815739 225.60027917 5.02112718 232.80013373 5 240 C6.38276123 239.99666908 6.38276123 239.99666908 7.79345703 239.99327087 C16.50292125 239.97319078 25.21237764 239.95798658 33.92185974 239.94818783 C38.3989257 239.94298077 42.87597244 239.93592285 47.35302734 239.92456055 C51.67779732 239.91365406 56.00254887 239.90770677 60.32733154 239.90512276 C61.97304575 239.90328246 63.61875901 239.89968891 65.26446533 239.89426994 C67.57867573 239.88695636 69.89281106 239.88601338 72.20703125 239.88647461 C74.17893433 239.88314369 74.17893433 239.88314369 76.19067383 239.87974548 C80.20152429 240.00636181 84.02900633 240.44282521 88 241 C88 241.33 88 241.66 88 242 C59.95 242 31.9 242 3 242 C2.26911201 209.41293106 1.80572328 176.83118193 1.46484375 144.23828125 C1.45490175 143.28964258 1.44495974 142.34100391 1.43471646 141.36361861 C1.26374876 125.01329791 1.10141268 108.66289352 0.9375 92.3125 C0.628125 61.849375 0.31875 31.38625 0 0 Z " fill="#3D0CD6" transform="translate(18,335)"/>
<path d="M0 0 C0.33 0 0.66 0 1 0 C1.02505615 0.57032959 1.0501123 1.14065918 1.07592773 1.72827148 C1.19156549 4.29826157 1.31443624 6.86785527 1.4375 9.4375 C1.47681641 10.33533203 1.51613281 11.23316406 1.55664062 12.15820312 C1.59853516 13.01220703 1.64042969 13.86621094 1.68359375 14.74609375 C1.72025146 15.53685303 1.75690918 16.3276123 1.79467773 17.14233398 C1.80563257 19.01401441 1.80563257 19.01401441 3 20 C3.1007575 21.45047667 3.13213696 22.90583216 3.13587189 24.35979939 C3.1431585 25.78031116 3.1431585 25.78031116 3.15059233 27.22952014 C3.15088831 28.28221676 3.1511843 29.33491337 3.15148926 30.41950989 C3.15572167 31.52826829 3.15995408 32.6370267 3.16431475 33.77938384 C3.17741799 37.52585676 3.1833832 41.27230837 3.18945312 45.01879883 C3.1973895 47.69222758 3.20572541 50.3656522 3.21458435 53.03907776 C3.2329629 58.81163322 3.24779688 64.58418911 3.26036072 70.35676003 C3.27862696 78.7073795 3.30329269 87.05797072 3.32973462 95.40856787 C3.37256582 108.96125292 3.41167 122.51394577 3.44775391 136.06665039 C3.44991671 136.87848287 3.45207951 137.69031534 3.45430785 138.5267488 C3.4696343 144.28866561 3.48482964 150.05058277 3.5 155.8125 C3.51731942 162.38907903 3.53470578 168.96565788 3.55224609 175.54223633 C3.55440496 176.35217479 3.55656383 177.16211325 3.55878812 177.9965953 C3.59488408 191.49352552 3.63483881 204.99044168 3.67754889 218.48735255 C3.70372218 226.81811185 3.72637714 235.14886684 3.74453247 243.47964754 C3.75719086 249.18767327 3.77331381 254.89568233 3.79218161 260.6036909 C3.80294855 263.89930377 3.81152447 267.19489757 3.81687737 270.49052429 C3.82290328 274.06022651 3.83494164 277.62985887 3.84851074 281.19953918 C3.84880673 282.24554364 3.84910272 283.29154809 3.84940767 284.36924964 C3.85426542 285.32408073 3.85912316 286.27891183 3.86412811 287.26267719 C3.86624408 288.08688768 3.86836005 288.91109816 3.87054014 289.76028472 C3.99815309 291.96804761 4.42755134 293.8708676 5 296 C5.08761198 297.74042447 5.12200414 299.4838741 5.12025452 301.22650146 C5.12162918 302.28376938 5.12300385 303.34103729 5.12442017 304.43034363 C5.12082489 305.58480484 5.11722961 306.73926605 5.11352539 307.92871094 C5.11367142 309.14849136 5.11381744 310.36827179 5.1139679 311.62501526 C5.1133908 314.96560522 5.10837708 318.3061333 5.10139394 321.6467123 C5.09514071 325.13941198 5.09455504 328.63211249 5.09336853 332.12481689 C5.09026103 338.73685272 5.08205545 345.348872 5.07201904 351.96090055 C5.06083988 359.48926374 5.05534291 367.01762772 5.05032361 374.54599714 C5.03987237 390.03067434 5.02228415 405.51533504 5 421 C5.99 420.67 6.98 420.34 8 420 C8.33 420.66 8.66 421.32 9 422 C8.01 422.33 7.02 422.66 6 423 C6 423.99 6 424.98 6 426 C5.01 426.33 4.02 426.66 3 427 C2.34 426.34 1.68 425.68 1 425 C1.66 425 2.32 425 3 425 C2.99061433 423.98085825 2.98122866 422.9617165 2.97155857 421.91169167 C0.81386249 187.57084645 0.81386249 187.57084645 0 0 Z " fill="#AE26DA" transform="translate(558,92)"/>
<path d="M0 0 C0.66 0 1.32 0 2 0 C2.17397669 15.74992492 2.34019717 31.49992484 2.5 47.25 C2.51187725 48.4201767 2.5237545 49.59035339 2.53599167 50.79598999 C2.86451725 83.36436057 3.09676631 115.92986766 3.0625 148.5 C3.06164398 149.31976822 3.06078796 150.13953644 3.05990601 150.98414612 C3.04901245 160.65612407 3.0297808 170.32806079 3 180 C-18.34099007 180.6848935 -39.64581173 181.16951908 -61 181 C-60.85643296 166.24997736 -60.71044906 151.49997934 -60.5625 136.75 C-60.55147877 135.65108681 -60.54045753 134.55217361 -60.52910233 133.41996002 C-60.21237686 101.90431455 -59.8617005 70.38939025 -59.4375 38.875 C-59.4263982 38.05009567 -59.4152964 37.22519135 -59.40385818 36.37528992 C-59.27184768 26.5834901 -59.13740771 16.79172564 -59 7 C-56.43133971 9.56866029 -56.76850492 11.24767956 -56.76226807 14.74775696 C-56.77102966 15.55093857 -56.77979126 16.35412018 -56.78881836 17.18164062 C-56.7901326 18.02728073 -56.79144684 18.87292084 -56.7928009 19.7441864 C-56.79930882 22.54832 -56.81974875 25.35218368 -56.83984375 28.15625 C-56.84611126 30.09915878 -56.85135231 32.04207112 -56.85560608 33.98498535 C-56.86893109 39.10693173 -56.89337479 44.22875968 -56.92095947 49.35064697 C-56.96402188 57.54982399 -56.99374939 65.74903325 -57.0170002 73.94828796 C-57.0272552 76.81896315 -57.04430318 79.68954289 -57.06199646 82.56018066 C-57.06882239 84.31290602 -57.07543117 86.06563225 -57.08178711 87.81835938 C-57.09189316 89.02313179 -57.09189316 89.02313179 -57.10220337 90.25224304 C-57.20328728 94.25583056 -57.20328728 94.25583056 -56 98 C-56.495 98.99 -56.495 98.99 -57 100 C-57.08464879 101.44596966 -57.10721346 102.89582455 -57.09765625 104.34423828 C-57.09435303 105.24763947 -57.0910498 106.15104065 -57.08764648 107.08181763 C-57.07934814 108.06802094 -57.0710498 109.05422424 -57.0625 110.0703125 C-57.05871338 111.09816864 -57.05492676 112.12602478 -57.05102539 113.18502808 C-57.03478906 117.57815586 -57.0073048 121.97119007 -56.97949219 126.36425781 C-56.91023659 138.33089634 -56.9428664 150.28178927 -57.375 162.2421875 C-57.40585693 163.23646759 -57.43671387 164.23074768 -57.46850586 165.25515747 C-57.67387882 170.18448204 -58.09138513 174.37684599 -60 179 C-57.525 178.01 -57.525 178.01 -55 177 C-55 177.66 -55 178.32 -55 179 C-36.19 179 -17.38 179 2 179 C1.4702005 168.43857163 1.4702005 168.43857163 0 158 C-0.08775084 155.80153086 -0.12200211 153.60065541 -0.12025452 151.4004364 C-0.12110894 150.750963 -0.12196337 150.10148961 -0.12284368 149.4323352 C-0.12448581 147.26435066 -0.11899795 145.09644416 -0.11352539 142.9284668 C-0.11324322 141.37109885 -0.11340184 139.81373078 -0.1139679 138.25636292 C-0.1142547 134.0336415 -0.1083768 129.81094852 -0.10139394 125.58823371 C-0.095141 121.17331063 -0.09455506 116.7583869 -0.09336853 112.34346008 C-0.09026094 103.98545203 -0.08205526 95.62745707 -0.07201904 87.26945478 C-0.06084014 77.75319762 -0.05534297 68.23693983 -0.05032361 58.72067773 C-0.03987218 39.14711119 -0.0222838 19.57355642 0 0 Z " fill="#370CD1" transform="translate(79,92)"/>
<path d="M0 0 C0.33 0 0.66 0 1 0 C1.02295971 43.66105101 1.04054546 87.32210137 1.05106533 130.98315725 C1.05231582 136.15429885 1.05361017 141.32544044 1.05493164 146.49658203 C1.05519395 147.52593142 1.05545626 148.55528082 1.05572652 149.61582261 C1.06006109 166.21641264 1.0679363 182.81699915 1.0771528 199.4175871 C1.08655117 216.48996876 1.09206862 233.56234859 1.09408849 250.63473272 C1.09545096 261.14342316 1.09973151 271.65210366 1.10791647 282.16079104 C1.11326047 289.39681959 1.11478718 296.63284311 1.11350138 303.86887348 C1.11286977 308.02464138 1.11373825 312.18039211 1.11920547 316.33615685 C1.14240558 334.88008212 0.90472972 353.38295551 0.23480988 371.91566467 C-0.16779213 383.26312723 -0.23129744 394.61535327 -0.31640625 405.96875 C-0.33708272 408.36682402 -0.35808098 410.76489529 -0.37937927 413.16296387 C-0.4335005 419.35046087 -0.48337464 425.53798435 -0.53222656 431.7255249 C-0.58326665 438.0891748 -0.63851334 444.45278821 -0.69335938 450.81640625 C-0.79958713 463.21090604 -0.90130828 475.60543807 -1 488 C-1.33 488 -1.66 488 -2 488 C-2.12317411 409.64167686 -2.02349791 331.28686728 -1.5625 252.9296875 C-1.55702683 251.99784547 -1.55155367 251.06600344 -1.54591465 250.10592377 C-1.4068345 226.45838509 -1.25960602 202.81089972 -1.10923576 179.16343045 C-1.02227403 165.47501407 -0.93765551 151.7865845 -0.85449219 138.09814453 C-0.8485182 137.11494967 -0.84254421 136.13175482 -0.83638918 135.11876617 C-0.80639058 130.17972662 -0.77642861 125.24068684 -0.74648476 120.30164695 C-0.5033212 80.20106208 -0.25396177 40.10051786 0 0 Z " fill="#F7CCFC" transform="translate(622,88)"/>
<path d="M0 0 C61.71 0 123.42 0 187 0 C187 8.91 187 17.82 187 27 C186.67 27 186.34 27 186 27 C186 18.42 186 9.84 186 1 C181.80071777 1.15847412 177.60143555 1.31694824 173.27490234 1.48022461 C156.17020208 2.07538521 139.07171069 2.21676391 121.95817566 2.30391693 C118.1650502 2.32401932 114.37195887 2.34870031 110.57885742 2.3729248 C99.59426471 2.44055461 88.60962945 2.50112631 77.625 2.5625 C52.99875 2.706875 28.3725 2.85125 3 3 C3 62.4 3 121.8 3 183 C2.67 183 2.34 183 2 183 C1.29541196 155.88847451 0.88233192 128.77951052 0.68359375 101.66015625 C0.6786135 100.98448821 0.67363326 100.30882017 0.66850209 99.61267734 C0.584154 88.09599812 0.5118985 76.5792495 0.4375 65.0625 C0.293125 43.591875 0.14875 22.12125 0 0 Z " fill="#981ACF" transform="translate(436,29)"/>
<path d="M0 0 C0.99 0.495 0.99 0.495 2 1 C2 1.66 2 2.32 2 3 C2.66 3 3.32 3 4 3 C4 3.66 4 4.32 4 5 C-14.48 5 -32.96 5 -52 5 C-52.06058594 12.033125 -52.12117187 19.06625 -52.18359375 26.3125 C-52.2672001 35.87500924 -52.35200834 45.43750744 -52.4375 55 C-52.44852123 56.23298702 -52.45954247 57.46597404 -52.47089767 58.73632431 C-52.76402914 91.42942119 -53.08958193 124.12146466 -53.5625 156.8125 C-53.5736018 157.58015686 -53.5847036 158.34781372 -53.59614182 159.13873291 C-53.72603984 168.09256099 -53.86016174 177.04632116 -54 186 C-67.77396703 186.13309214 -81.54795622 186.26359754 -95.32197571 186.39115143 C-101.72377693 186.45050892 -108.12556875 186.51062812 -114.52734375 186.57275391 C-140.4763819 186.82397714 -166.42460087 187.046792 -192.375 187.0625 C-193.33362946 187.0637941 -194.29225891 187.0650882 -195.27993774 187.06642151 C-213.53122949 187.08614974 -231.76135162 186.65838439 -250 186 C-250 185.67 -250 185.34 -250 185 C-185.65 185 -121.3 185 -55 185 C-55.07920127 129.27793484 -55.07920127 129.27793484 -55.18017578 73.5559082 C-55.18920898 62.78747559 -55.18920898 62.78747559 -55.19088745 57.74894714 C-55.19275342 54.22414135 -55.20025904 50.69939558 -55.21115112 47.17460632 C-55.22485616 42.68006724 -55.22898472 38.18561561 -55.22614455 33.69105756 C-55.22673856 32.04059401 -55.23071221 30.39012745 -55.23843026 28.73968184 C-55.24836739 26.51138698 -55.24598398 24.28343256 -55.24050903 22.05513 C-55.24235262 20.80610051 -55.24419621 19.55707102 -55.24609566 18.27019215 C-55.00628591 15.08352904 -54.37030819 12.8645992 -53 10 C-53.99 9.67 -54.98 9.34 -56 9 C-56.33 8.01 -56.66 7.02 -57 6 C-56.34 5.67 -55.68 5.34 -55 5 C-54.34 4.01 -53.68 3.02 -53 2 C-50.83679199 1.6526947 -50.83679199 1.6526947 -48.12304688 1.69116211 C-46.60136902 1.70118507 -46.60136902 1.70118507 -45.0489502 1.71141052 C-43.94998413 1.73316849 -42.85101807 1.75492645 -41.71875 1.77734375 C-40.03211243 1.79082603 -40.03211243 1.79082603 -38.31140137 1.80458069 C-34.70729292 1.83470037 -31.10383972 1.88450941 -27.5 1.9375 C-23.89620533 1.98521491 -20.29257607 2.02855749 -16.68859863 2.05970764 C-14.44263679 2.07957193 -12.19673747 2.10931795 -9.9510498 2.14964294 C-8.9365979 2.15947708 -7.922146 2.16931122 -6.87695312 2.17944336 C-5.98141724 2.1929332 -5.08588135 2.20642303 -4.16320801 2.22032166 C-1.787277 2.20849015 -1.787277 2.20849015 0 0 Z " fill="#9518D2" transform="translate(554,86)"/>
<path d="M0 0 C9.9 0 19.8 0 30 0 C30.61318739 13.49012249 31.08063183 26.9292441 31.04272461 40.43286133 C31.04059206 41.81251154 31.03861053 43.192162 31.0367651 44.57181263 C31.02939963 49.04789349 31.01554247 53.52394085 31 58 C30.99738364 58.76161548 30.99476727 59.52323096 30.99207163 60.3079257 C30.94766824 72.89676131 30.88376628 85.48548818 30.81640625 98.07421875 C30.81154418 98.98909695 30.80668211 99.90397515 30.8016727 100.84657693 C30.75561803 109.51156996 30.70898959 118.17655966 30.66066074 126.84154034 C30.59956549 137.7996447 30.54165856 148.75775575 30.48800808 159.71589917 C30.44963134 167.50184012 30.40768764 175.28775701 30.36312145 183.07366496 C30.33676524 187.69413371 30.31191339 192.31459831 30.29092598 196.93509483 C30.27118933 201.26354016 30.2469981 205.59193868 30.21950912 209.92034149 C30.21024575 211.49681812 30.20253347 213.07330484 30.19658089 214.64979744 C30.16518751 222.71997459 29.91873829 230.70072002 29.22863865 238.7469511 C28.79363105 244.93619774 28.82044687 251.13526527 28.79467773 257.3371582 C28.78507142 258.82674412 28.77505986 260.31632748 28.76467896 261.8059082 C28.73792154 265.80706026 28.71675638 269.80822376 28.69667697 273.80941415 C28.6746349 278.00676765 28.64733636 282.20408708 28.62062073 286.40141296 C28.57093786 294.33059635 28.52590971 302.25979891 28.48259836 310.18901938 C28.43301581 319.22423798 28.37817643 328.25942236 28.32291877 337.29460776 C28.20947397 355.86303998 28.102555 374.4315046 28 393 C27.67 393 27.34 393 27 393 C25.90151183 362.11449147 25.84354901 331.23895885 25.87143159 300.33681095 C25.87578105 294.9448074 25.87265993 289.55282716 25.8678025 284.16082507 C25.86267121 278.2181015 25.86327108 272.27538804 25.86618423 266.33266258 C25.86684275 263.85034365 25.86606356 261.36802384 25.86370468 258.88570595 C25.8542531 246.17882746 25.97543397 233.52970649 26.77981567 220.84576416 C27.07424989 215.70314314 27.07963275 210.58575728 27 205.4375 C26.9745939 203.66542424 26.95352579 201.89327916 26.9375 200.12109375 C26.92589844 199.3727124 26.91429687 198.62433105 26.90234375 197.85327148 C27 196 27 196 28 194 C28.09553197 191.48093107 28.13015437 188.98966276 28.12025452 186.47042847 C28.12110894 185.68467756 28.12196337 184.89892666 28.12284368 184.08936512 C28.12449789 181.44220369 28.11897806 178.79510487 28.11352539 176.14794922 C28.11324348 174.25605267 28.11340133 172.36415601 28.1139679 170.47225952 C28.11425572 165.3237723 28.1083614 160.17530821 28.10139394 155.02682638 C28.09515791 149.65095225 28.0945564 144.27507763 28.09336853 138.89920044 C28.09025595 128.71362971 28.08204355 118.52806968 28.07201904 108.34250367 C28.06085563 96.74896709 28.05534688 85.15543002 28.05032361 73.56188941 C28.03986088 49.70792014 28.02206227 25.85396112 28 2 C14.14 1.505 14.14 1.505 0 1 C0 0.67 0 0.34 0 0 Z " fill="#B921D7" transform="translate(592,30)"/>
<path d="M0 0 C0.33 0 0.66 0 1 0 C2.7768594 35.38124016 3.19175853 70.6646952 3.02602482 106.08339214 C3.0099948 109.58621766 2.99706532 113.08905266 2.98400688 116.59189034 C2.97296662 119.01394069 2.95565022 121.43588693 2.9377594 123.8578949 C2.9031884 130.1930027 2.92210178 136.40880388 3.77168274 142.69874573 C4.32254523 148.25099635 4.11961925 153.86809738 4.09765625 159.44140625 C4.09578728 160.8185979 4.09436564 162.19579023 4.09336853 163.57298279 C4.08958103 167.16828298 4.07978368 170.76354169 4.06866455 174.35882568 C4.05836869 178.03934163 4.05385353 181.71986438 4.04882812 185.40039062 C4.03815739 192.60027917 4.02112718 199.80013373 4 207 C5.38276123 206.99666908 5.38276123 206.99666908 6.79345703 206.99327087 C15.50292125 206.97319078 24.21237764 206.95798658 32.92185974 206.94818783 C37.3989257 206.94298077 41.87597244 206.93592285 46.35302734 206.92456055 C50.67779732 206.91365406 55.00254887 206.90770677 59.32733154 206.90512276 C60.97304575 206.90328246 62.61875901 206.89968891 64.26446533 206.89426994 C66.57867573 206.88695636 68.89281106 206.88601338 71.20703125 206.88647461 C73.17893433 206.88314369 73.17893433 206.88314369 75.19067383 206.87974548 C79.20152429 207.00636181 83.02900633 207.44282521 87 208 C87 208.33 87 208.66 87 209 C58.95 209 30.9 209 2 209 C0.45699649 139.3444132 -0.2485161 69.67241832 0 0 Z " fill="#3210CF" transform="translate(19,368)"/>
<path d="M0 0 C0.33 0 0.66 0 1 0 C1.01030746 1.19381287 1.02061493 2.38762573 1.03123474 3.61761475 C1.12892445 14.85955499 1.23165441 26.10143934 1.33933926 37.34328842 C1.39454057 43.12304529 1.44795621 48.90280724 1.49731445 54.68261719 C1.54499905 60.25879592 1.59734349 65.83491311 1.65294075 71.41101837 C1.67334571 73.54008708 1.69206186 75.66917266 1.70907402 77.79827118 C1.73315905 80.77670903 1.76320821 83.75503074 1.79467773 86.73339844 C1.8004332 87.61668823 1.80618866 88.49997803 1.81211853 89.41003418 C1.82680176 90.62992035 1.82680176 90.62992035 1.84178162 91.87445068 C1.84823417 92.57870052 1.85468672 93.28295036 1.8613348 94.00854111 C1.93933833 96.0097771 1.93933833 96.0097771 2.50237274 97.93119049 C3.10085847 100.41930371 3.12282436 102.66694058 3.12025452 105.22650146 C3.12162918 106.28376938 3.12300385 107.34103729 3.12442017 108.43034363 C3.12082489 109.58480484 3.11722961 110.73926605 3.11352539 111.92871094 C3.11367142 113.14849136 3.11381744 114.36827179 3.1139679 115.62501526 C3.1133908 118.96560522 3.10837708 122.3061333 3.10139394 125.6467123 C3.09514071 129.13941198 3.09455504 132.63211249 3.09336853 136.12481689 C3.09026103 142.73685272 3.08205545 149.348872 3.07201904 155.96090055 C3.06083988 163.48926374 3.05534291 171.01762772 3.05032361 178.54599714 C3.03987237 194.03067434 3.02228415 209.51533504 3 225 C3.99 224.67 4.98 224.34 6 224 C6.33 224.66 6.66 225.32 7 226 C6.01 226.33 5.02 226.66 4 227 C4 227.99 4 228.98 4 230 C3.01 230.33 2.02 230.66 1 231 C0.34 230.34 -0.32 229.68 -1 229 C-0.34 229 0.32 229 1 229 C0.98120789 227.43986176 0.98120789 227.43986176 0.96203613 225.84820557 C0.79630694 211.98226237 0.64425416 198.11618264 0.5 184.25 C0.48812275 183.10903492 0.4762455 181.96806984 0.46400833 180.79253006 C0.03350283 139.00667313 -0.08872552 97.22512808 -0.0625 55.4375 C-0.06207577 54.74130365 -0.06165154 54.04510731 -0.06121445 53.3278141 C-0.05019751 35.55186357 -0.03021666 17.77592863 0 0 Z " fill="#A813D7" transform="translate(560,288)"/>
<path d="M0 0 C0 0.66 0 1.32 0 2 C-61.71 2 -123.42 2 -187 2 C-187 1.34 -187 0.68 -187 0 C-163.50419226 -0.15394174 -140.00835372 -0.3019739 -116.51246452 -0.4429636 C-105.60301651 -0.50856487 -94.6935869 -0.57610266 -83.78417969 -0.64819336 C-74.27597309 -0.71101985 -64.76775202 -0.77021897 -55.25949585 -0.82505554 C-50.22458964 -0.85422 -45.18970943 -0.88520542 -40.15484238 -0.92053413 C-35.41568281 -0.95373063 -30.67651895 -0.98207613 -25.93730736 -1.00670624 C-24.19825444 -1.01659845 -22.45921054 -1.02826081 -20.72018242 -1.04183006 C-18.34444946 -1.06010183 -15.96876602 -1.07198269 -13.59298706 -1.08229065 C-12.90620247 -1.08909444 -12.21941787 -1.09589823 -11.51182163 -1.10290819 C-7.56820675 -1.11206895 -3.86934997 -0.75819483 0 0 Z " fill="#FEE9FE" transform="translate(623,27)"/>
<path d="M0 0 C0.33 0 0.66 0 1 0 C1 59.07 1 118.14 1 179 C31.69 179 62.38 179 94 179 C94 179.33 94 179.66 94 180 C46.975 180.495 46.975 180.495 -1 181 C-1 138.20098094 -1 138.20098094 -0.84753418 117.85295105 C-0.83660991 116.37522581 -0.82570042 114.89750046 -0.81480408 113.41977501 C-0.80928213 112.6775588 -0.80376019 111.93534259 -0.79807091 111.17063498 C-0.76907563 107.23370268 -0.74163031 103.29675951 -0.71398926 99.3598175 C-0.66190914 91.9732712 -0.60852502 84.58673498 -0.5546174 77.20020181 C-0.49310067 68.76178506 -0.4331214 60.32335757 -0.37324238 51.88492906 C-0.25048433 34.58994062 -0.12588942 17.29496593 0 0 Z " fill="#921ACF" transform="translate(438,397)"/>
<path d="M0 0 C2.56866029 2.56866029 2.23149508 4.24767956 2.23773193 7.74775696 C2.22897034 8.55093857 2.22020874 9.35412018 2.21118164 10.18164062 C2.2098674 11.02728073 2.20855316 11.87292084 2.2071991 12.7441864 C2.20069118 15.54832 2.18025125 18.35218368 2.16015625 21.15625 C2.15388874 23.09915878 2.14864769 25.04207112 2.14439392 26.98498535 C2.13106891 32.10693173 2.10662521 37.22875968 2.07904053 42.35064697 C2.03597812 50.54982399 2.00625061 58.74903325 1.9829998 66.94828796 C1.9727448 69.81896315 1.95569682 72.68954289 1.93800354 75.56018066 C1.93117761 77.31290602 1.92456883 79.06563225 1.91821289 80.81835938 C1.90810684 82.02313179 1.90810684 82.02313179 1.89779663 83.25224304 C1.79671272 87.25583056 1.79671272 87.25583056 3 91 C2.505 91.99 2.505 91.99 2 93 C1.91535121 94.44596966 1.89278654 95.89582455 1.90234375 97.34423828 C1.90564697 98.24763947 1.9089502 99.15104065 1.91235352 100.08181763 C1.92065186 101.06802094 1.9289502 102.05422424 1.9375 103.0703125 C1.94128662 104.09816864 1.94507324 105.12602478 1.94897461 106.18502808 C1.96521094 110.57815586 1.9926952 114.97119007 2.02050781 119.36425781 C2.09000434 131.37252566 2.05494691 143.36507343 1.625 155.3671875 C1.59414307 156.3782254 1.56328613 157.38926331 1.53149414 158.43093872 C1.4927417 159.36751312 1.45398926 160.30408752 1.4140625 161.26904297 C1.3826416 162.08887665 1.3512207 162.90871033 1.31884766 163.75338745 C0.97343853 166.18715308 0.21336884 167.87709869 -1 170 C-1.03099855 155.91667687 -1.05111581 141.83335272 -1.0625 127.75 C-1.06335602 126.69859581 -1.06421204 125.64719162 -1.06509399 124.5639267 C-1.08722537 93.74738818 -0.94511882 62.93845067 -0.5 32.125 C-0.48804218 31.2966716 -0.47608437 30.4683432 -0.46376419 29.61491394 C-0.32027294 19.74309077 -0.16635874 9.87146557 0 0 Z " fill="#3113C4" transform="translate(20,99)"/>
<path d="M0 0 C39.6 0 79.2 0 120 0 C120 0.33 120 0.66 120 1 C81.39 1 42.78 1 3 1 C2.67 22.45 2.34 43.9 2 66 C1.01 66.495 1.01 66.495 0 67 C0 44.89 0 22.78 0 0 Z " fill="#300DCD" transform="translate(21,30)"/>
<path d="M0 0 C0.33 0 0.66 0 1 0 C1.09934558 39.57163671 0.83334636 79.13963472 0.55461788 118.70997715 C0.4928266 127.4919537 0.43297961 136.27394323 0.37324238 145.05593395 C0.25088789 163.03730379 0.12626039 181.01865718 0 199 C-0.33 199 -0.66 199 -1 199 C-2.09848817 168.11449147 -2.15645099 137.23895885 -2.12856841 106.33681095 C-2.12421895 100.9448074 -2.12734007 95.55282716 -2.1321975 90.16082507 C-2.13732879 84.2181015 -2.13672892 78.27538804 -2.13381577 72.33266258 C-2.13315725 69.85034365 -2.13393644 67.36802384 -2.13629532 64.88570595 C-2.1457469 52.17882746 -2.02456603 39.52970649 -1.22018433 26.84576416 C-0.92575011 21.70314314 -0.92036725 16.58575728 -1 11.4375 C-1.0254061 9.66542424 -1.04647421 7.89327916 -1.0625 6.12109375 C-1.07410156 5.3727124 -1.08570313 4.62433105 -1.09765625 3.85327148 C-1 2 -1 2 0 0 Z " fill="#C109E7" transform="translate(620,224)"/>
<path d="M0 0 C0.66 0 1.32 0 2 0 C2 27.72 2 55.44 2 84 C3.32 84.33 4.64 84.66 6 85 C5.67 85.99 5.34 86.98 5 88 C3.35 87.34 1.7 86.68 0 86 C-0.495 86.99 -0.495 86.99 -1 88 C-2.05348439 83.74291797 -2.09510208 79.65781018 -2.00585938 75.30395508 C-1.99464554 74.54565903 -1.9834317 73.78736298 -1.97187805 73.00608826 C-1.9469479 71.36642046 -1.91955784 69.7267886 -1.88996887 68.08719826 C-1.84329983 65.49452221 -1.80329204 62.90181839 -1.76501465 60.30900574 C-1.68263471 54.81006824 -1.59184002 49.31128651 -1.5 43.8125 C-1.39362528 37.43015559 -1.29067254 31.04779162 -1.19624329 24.66525841 C-1.15663619 22.10697585 -1.11083949 19.54885097 -1.06481934 16.99067688 C-1.04096049 15.42974291 -1.01738532 13.86880457 -0.99414062 12.30786133 C-0.97962357 11.5935495 -0.96510651 10.87923767 -0.95014954 10.14328003 C-0.8457863 6.44848144 -0.8457863 6.44848144 -2 3 C-1.34 3 -0.68 3 0 3 C0 2.01 0 1.02 0 0 Z " fill="#560BD4" transform="translate(202,128)"/>
<path d="M0 0 C0.33 0 0.66 0 1 0 C1 25.08 1 50.16 1 76 C-20.37789637 76.59383045 -41.63310245 77.15458366 -63 77 C-63 71.39 -63 65.78 -63 60 C-62.67 60 -62.34 60 -62 60 C-62 64.95 -62 69.9 -62 75 C-59.525 74.01 -59.525 74.01 -57 73 C-57 73.66 -57 74.32 -57 75 C-38.19 75 -19.38 75 0 75 C0 50.25 0 25.5 0 0 Z " fill="#5033D5" transform="translate(81,196)"/>
<path d="M0 0 C0 0.33 0 0.66 0 1 C-1.77322632 1.03758423 -1.77322632 1.03758423 -3.58227539 1.07592773 C-8.09095916 1.17217648 -12.5995636 1.27180804 -17.1081543 1.37231445 C-19.03652047 1.41486249 -20.96490547 1.45656764 -22.89331055 1.49731445 C-25.71148316 1.55702462 -28.52956731 1.62006857 -31.34765625 1.68359375 C-32.1695192 1.70030624 -32.99138214 1.71701874 -33.83815002 1.73423767 C-38.58395914 1.84441127 -43.32316558 2.01043072 -48.0643158 2.2469635 C-61.52197152 2.90973401 -74.90037924 3.0721857 -88.37109375 2.87890625 C-90.4008774 2.85450229 -92.43066793 2.83066464 -94.46046448 2.80735779 C-99.71605476 2.74553571 -104.97151785 2.6762 -110.22698975 2.60510254 C-115.62457656 2.53347813 -121.02225117 2.46923122 -126.41992188 2.40429688 C-136.9467111 2.2766049 -147.47338046 2.1409465 -158 2 C-158 1.67 -158 1.34 -158 1 C-142.91673112 0.82735332 -127.8333981 0.66096717 -112.75 0.5 C-111.08108578 0.48218412 -111.08108578 0.48218412 -109.37845612 0.46400833 C-72.91708084 0.0767771 -36.46344368 -0.14639431 0 0 Z " fill="#F2BBFC" transform="translate(610,576)"/>
<path d="M0 0 C0.99 0 1.98 0 3 0 C3 0.66 3 1.32 3 2 C3.66 2 4.32 2 5 2 C7.38615634 6.67736182 7.25917253 10.90166354 7.1953125 16.01953125 C7.1924826 16.87810226 7.18965271 17.73667328 7.18673706 18.6212616 C7.1755807 21.35181875 7.15048459 24.0820427 7.125 26.8125 C7.11496432 28.66861504 7.1058395 30.52473524 7.09765625 32.38085938 C7.07565626 36.92070046 7.04115781 41.46029381 7 46 C6.67 46 6.34 46 6 46 C5.97494385 45.08299316 5.9498877 44.16598633 5.92407227 43.22119141 C5.82813712 39.77318225 5.72896017 36.32529633 5.62768555 32.87744141 C5.5847477 31.39375369 5.54304988 29.91002949 5.50268555 28.42626953 C5.44396973 26.27625591 5.38058502 24.12641922 5.31640625 21.9765625 C5.26141968 20.04417725 5.26141968 20.04417725 5.20532227 18.07275391 C5.017751 13.36216904 4.51005344 8.68490471 4 4 C2.75089844 4.06058594 1.50179687 4.12117188 0.21484375 4.18359375 C-4.49656542 4.41108528 -9.20820424 4.63348948 -13.91992188 4.85449219 C-15.9447257 4.95014716 -17.96946806 5.04711374 -19.99414062 5.14550781 C-32.0071796 5.72831861 -43.97137259 6.15712285 -56 6 C-55.67 5.01 -55.34 4.02 -55 3 C-41.70881037 2.34630644 -28.4335374 1.89662086 -15.125 1.875 C-13.37932739 1.86823242 -13.37932739 1.86823242 -11.59838867 1.86132812 C-9.97574097 1.86422852 -9.97574097 1.86422852 -8.3203125 1.8671875 C-7.36398926 1.86831543 -6.40766602 1.86944336 -5.42236328 1.87060547 C-3 2 -3 2 0 3 C0 2.01 0 1.02 0 0 Z " fill="#4417D8" transform="translate(136,86)"/>
<path d="M0 0 C0.33 0 0.66 0 1 0 C1 4.95 1 9.9 1 15 C-0.65 15.66 -2.3 16.32 -4 17 C-4 16.34 -4 15.68 -4 15 C-6.43787385 15.1409349 -8.87517853 15.28754542 -11.3125 15.4375 C-12.34793945 15.49647461 -12.34793945 15.49647461 -13.40429688 15.55664062 C-16.47161535 15.74927415 -19.06968152 16.02322717 -22 17 C-23.34129636 17.14564625 -24.68778225 17.24660605 -26.03515625 17.31640625 C-26.83663086 17.35838135 -27.63810547 17.40035645 -28.46386719 17.44360352 C-29.32141602 17.48283936 -30.17896484 17.5220752 -31.0625 17.5625 C-32.38169434 17.62618774 -32.38169434 17.62618774 -33.72753906 17.69116211 C-42.48686995 18.08055276 -51.23423471 18.09528006 -60 18 C-60.9360342 14.20732808 -60.98276252 11.06325435 -60.5625 7.1875 C-60.40974609 5.72376953 -60.40974609 5.72376953 -60.25390625 4.23046875 C-60.17011719 3.49441406 -60.08632812 2.75835937 -60 2 C-59.67 2 -59.34 2 -59 2 C-59 6.62 -59 11.24 -59 16 C-57.18435547 15.76796875 -57.18435547 15.76796875 -55.33203125 15.53125 C-49.13031165 14.8425742 -42.92101337 14.6873176 -36.6875 14.5 C-28.95989488 14.26543526 -21.28832624 13.89699722 -13.5871582 13.20947266 C-10.63422073 12.9703842 -7.71199269 12.89852641 -4.75 12.9375 C-3.1825 12.958125 -1.615 12.97875 0 13 C0 8.71 0 4.42 0 0 Z " fill="#471AD5" transform="translate(141,502)"/>
<path d="M0 0 C0.33 0 0.66 0 1 0 C1.33 23.1 1.66 46.2 2 70 C22.295 70.495 22.295 70.495 43 71 C43 71.33 43 71.66 43 72 C28.81 72 14.62 72 0 72 C0 48.24 0 24.48 0 0 Z " fill="#EBCDFE" transform="translate(203,139)"/>
<path d="M0 0 C2 2 2 2 3 5 C2.67 5.66 2.34 6.32 2 7 C1.91535121 8.44596966 1.89278654 9.89582455 1.90234375 11.34423828 C1.90564697 12.24763947 1.9089502 13.15104065 1.91235352 14.08181763 C1.92065186 15.06802094 1.9289502 16.05422424 1.9375 17.0703125 C1.94128662 18.09816864 1.94507324 19.12602478 1.94897461 20.18502808 C1.96521094 24.57815586 1.9926952 28.97119007 2.02050781 33.36425781 C2.09000434 45.37252566 2.05494691 57.36507343 1.625 69.3671875 C1.59414307 70.3782254 1.56328613 71.38926331 1.53149414 72.43093872 C1.4927417 73.36751312 1.45398926 74.30408752 1.4140625 75.26904297 C1.3826416 76.08887665 1.3512207 76.90871033 1.31884766 77.75338745 C1 80 1 80 -1 84 C-0.67 56.28 -0.34 28.56 0 0 Z " fill="#2D07E3" transform="translate(20,185)"/>
<path d="M0 0 C0.66 0.33 1.32 0.66 2 1 C2.02491426 5.26838806 2.04296047 9.53673639 2.05493164 13.80517578 C2.05992785 15.25407652 2.06672709 16.70297231 2.07543945 18.15185547 C2.16225376 32.97156783 2.16225376 32.97156783 1 40 C0.67 40 0.34 40 0 40 C-0.85496152 31.44064715 -1.15441615 22.9743204 -1.125 14.375 C-1.12886719 13.20582031 -1.13273438 12.03664063 -1.13671875 10.83203125 C-1.13542969 9.71957031 -1.13414062 8.60710937 -1.1328125 7.4609375 C-1.13168457 6.45853027 -1.13055664 5.45612305 -1.12939453 4.42333984 C-1 2 -1 2 0 0 Z " fill="#B11AE4" transform="translate(561,384)"/>
<path d="M0 0 C0 5.28 0 10.56 0 16 C-0.33 16 -0.66 16 -1 16 C-1.33 12.04 -1.66 8.08 -2 4 C-5.74691447 4.78306954 -5.74691447 4.78306954 -8 6 C-8 5.34 -8 4.68 -8 4 C-9.25296875 3.95101563 -10.5059375 3.90203125 -11.796875 3.8515625 C-13.44793821 3.77651417 -15.09897881 3.70096723 -16.75 3.625 C-17.575 3.5940625 -18.4 3.563125 -19.25 3.53125 C-20.04921875 3.49257813 -20.8484375 3.45390625 -21.671875 3.4140625 C-22.4050293 3.3826416 -23.13818359 3.3512207 -23.89355469 3.31884766 C-26.24922918 2.96227477 -27.93450591 2.16337117 -30 1 C-25.93756661 0.8316832 -21.87504353 0.66563538 -17.8125 0.5 C-16.66201172 0.45230469 -15.51152344 0.40460938 -14.32617188 0.35546875 C-13.21435547 0.31035156 -12.10253906 0.26523437 -10.95703125 0.21875 C-9.93585205 0.17685547 -8.91467285 0.13496094 -7.86254883 0.09179688 C-5.24286726 0.00778832 -2.62102823 0 0 0 Z " fill="#5C19D9" transform="translate(202,456)"/>
<path d="M0 0 C0.99 0 1.98 0 3 0 C3 0.66 3 1.32 3 2 C3.66 2 4.32 2 5 2 C7.38615634 6.67736182 7.25917253 10.90166354 7.1953125 16.01953125 C7.1924826 16.87810226 7.18965271 17.73667328 7.18673706 18.6212616 C7.1755807 21.35181875 7.15048459 24.0820427 7.125 26.8125 C7.11496432 28.66861504 7.1058395 30.52473524 7.09765625 32.38085938 C7.07565626 36.92070046 7.04115781 41.46029381 7 46 C6.67 46 6.34 46 6 46 C5.97494385 45.05157227 5.9498877 44.10314453 5.92407227 43.12597656 C5.8288116 39.59981968 5.72958559 36.07382041 5.62768555 32.54785156 C5.58443293 31.02315614 5.54275115 29.49841531 5.50268555 27.97363281 C5.44474797 25.77915778 5.38112205 23.58490932 5.31640625 21.390625 C5.29969376 20.7113092 5.28298126 20.03199341 5.26576233 19.33209229 C5.16424171 16.07266775 4.85767032 13.14003354 4 10 C3.96111651 7.66699067 3.9551365 5.33290199 4 3 C2.68 3 1.36 3 0 3 C0 2.01 0 1.02 0 0 Z " fill="#4808E0" transform="translate(136,86)"/>
<path d="M0 0 C0.33 0 0.66 0 1 0 C1 4.95 1 9.9 1 15 C-0.65 15.66 -2.3 16.32 -4 17 C-4 16.34 -4 15.68 -4 15 C-4.92619141 15.12568359 -4.92619141 15.12568359 -5.87109375 15.25390625 C-11.82453683 15.96976927 -17.06653189 15.86130989 -23 15 C-23 14.67 -23 14.34 -23 14 C-15.29928525 13.24739961 -7.73773151 12.89818774 0 13 C0 8.71 0 4.42 0 0 Z " fill="#6738DA" transform="translate(141,502)"/>
<path d="M0 0 C0.66 0 1.32 0 2 0 C2.02725341 1.7290774 2.04650987 3.45828176 2.0625 5.1875 C2.07410156 6.15042969 2.08570313 7.11335937 2.09765625 8.10546875 C2.00486622 10.85576513 1.62111685 13.32479591 1 16 C0.67 16 0.34 16 0 16 C-0.06058594 15.22914063 -0.12117187 14.45828125 -0.18359375 13.6640625 C-0.26738281 12.66117188 -0.35117188 11.65828125 -0.4375 10.625 C-0.51871094 9.62726563 -0.59992188 8.62953125 -0.68359375 7.6015625 C-0.84965626 5.02072387 -0.84965626 5.02072387 -2 3 C-1.34 3 -0.68 3 0 3 C0 2.01 0 1.02 0 0 Z " fill="#691FE4" transform="translate(202,128)"/>
<path d="M0 0 C0.33 0 0.66 0 1 0 C1.10152799 6.7685324 1.03026944 13.30324864 0 20 C-0.33 20 -0.66 20 -1 20 C-1.99939172 12.77466796 -1.96290189 7.04335384 0 0 Z " fill="#A818DF" transform="translate(501,92)"/>
<path d="M0 0 C0.99 0 1.98 0 3 0 C3 0.66 3 1.32 3 2 C3.66 2 4.32 2 5 2 C6.0625 4.375 6.0625 4.375 7 7 C6 9 6 9 4 10 C4 7.69 4 5.38 4 3 C2.68 3 1.36 3 0 3 C0 2.01 0 1.02 0 0 Z " fill="#4A0DEC" transform="translate(136,86)"/>
<path d="M0 0 C1.36511719 0.29197266 1.36511719 0.29197266 2.7578125 0.58984375 C3.45648438 0.74582031 4.15515625 0.90179688 4.875 1.0625 C4.875 1.3925 4.875 1.7225 4.875 2.0625 C-0.405 2.0625 -5.685 2.0625 -11.125 2.0625 C-4.875 -1.0625 -4.875 -1.0625 0 0 Z " fill="#5017D3" transform="translate(158.125,271.9375)"/>
<path d="M0 0 C0.66 0.33 1.32 0.66 2 1 C1.67 3.31 1.34 5.62 1 8 C0.01 7.67 -0.98 7.34 -2 7 C-2.33 6.01 -2.66 5.02 -3 4 C-2.34 3.67 -1.68 3.34 -1 3 C-0.67 2.01 -0.34 1.02 0 0 Z " fill="#AE03EF" transform="translate(500,88)"/>
<path d="M0 0 C0.33 0.99 0.66 1.98 1 3 C1.66 3 2.32 3 3 3 C3 4.65 3 6.3 3 8 C2.01 8 1.02 8 0 8 C0 5.36 0 2.72 0 0 Z " fill="#652AE9" transform="translate(142,477)"/>
</svg>
